<svg width="1248" height="259" viewBox="0 0 1248 259" fill="none" xmlns="http://www.w3.org/2000/svg">
<path d="M1183.66 41.1793L1215.62 103.728C1169.47 84.7576 1105.42 58.3385 1105.42 58.3385L1183.66 41.1793Z" fill="#1B1A20" fill-opacity="0.7"/>
<path d="M51.4948 97.3247L10.6468 56.7433C54.9656 64.0517 116.32 74.507 116.32 74.507L51.4948 97.3247Z" fill="#1B1A20" fill-opacity="0.7"/>
<path d="M1059.49 39.6878L1198.82 96.8217C1087.05 85.1306 905.633 66.1235 905.633 66.1235L1059.49 39.6878Z" fill="#1B1A20" fill-opacity="0.8"/>
<path d="M238.097 31.4392L427.059 57.9768C284 72.8338 52.5593 96.9768 52.5593 96.9768L238.097 31.4392Z" fill="#1B1A20" fill-opacity="0.8"/>
<path d="M512.068 21.3085L622.113 37.3425L423.312 58.1562L512.068 21.3085Z" fill="#1B1A20" fill-opacity="0.6"/>
<path d="M391.457 101.771L493.451 51.8288L281.474 72.9011L391.457 101.771Z" fill="#1B1A20" fill-opacity="0.6"/>
<path d="M841.471 92.1008L925.435 69.2799L764.219 52.3344L841.471 92.1008Z" fill="#1B1A20" fill-opacity="0.7"/>
<path d="M561.59 66.6762L625.276 37.0434L492.747 52.202L561.59 66.6762Z" fill="#1B1A20" fill-opacity="0.8"/>
<path d="M726.72 28.8214L628.204 37.6148L821.075 58.2066L726.72 28.8214Z" fill="black" fill-opacity="0.6"/>
<path d="M689.655 71.0991L760.366 51.8336L624.862 37.0925L689.655 71.0991Z" fill="#1B1A20" fill-opacity="0.6"/>
<path d="M1194 42H1248V162H1194V42Z" fill="#FFFEFE"/>
<path d="M0 15H54V135H0V15Z" fill="white"/>
<path d="M54 258.977H1194V96L625 37L54 96.4369V258.977Z" fill="#111113" fill-opacity="0.78"/>
</svg>
