<svg width="1262" height="304" viewBox="0 0 1262 304" fill="none" xmlns="http://www.w3.org/2000/svg">
<path d="M61 0H1201V180.108L631.5 257.5L61 180.108V0Z" fill="#1B1A20" fill-opacity="0.8"/>
<path d="M1194.46 251.685L1215.16 167.242C1172.42 200.031 1113.1 245.652 1113.1 245.652L1194.46 251.685Z" fill="#1B1A20" fill-opacity="0.7"/>
<path d="M57.7501 178.411L17.5541 232.554C62.3565 221.74 124.353 207.605 124.353 207.605L57.7501 178.411Z" fill="#1B1A20" fill-opacity="0.7"/>
<path opacity="0.8" d="M1069.72 278.952L1197.72 180.629C1092.97 194.787 922.952 217.827 922.952 217.827L1069.72 278.952Z" fill="#1B1A20" fill-opacity="0.7"/>
<path d="M258.41 266.243L447.004 232.595C303.991 213.084 62.0421 180.272 62.0421 180.272L258.41 266.243Z" fill="#1B1A20" fill-opacity="0.7"/>
<path d="M521.655 276.076L631.02 257.456L433.113 229.979L521.655 276.076Z" fill="#1B1A20" fill-opacity="0.7"/>
<path d="M412.584 177.414L514.103 242.291L302.332 212.948L412.584 177.414Z" fill="#1B1A20" fill-opacity="0.6"/>
<path d="M841.061 187.347L925.883 217.919L763.093 239.427L841.061 187.347Z" fill="#1B1A20" fill-opacity="0.6"/>
<path d="M569.234 221.101L631.157 257.423L498.946 239.374L569.234 221.101Z" fill="#1B1A20" fill-opacity="0.8"/>
<path d="M722.66 269.146L631.057 257.534L817.059 232.179L722.66 269.146Z" fill="black" fill-opacity="0.7"/>
<path d="M696.584 215.232L767.189 238.001L631 257.5L696.584 215.232Z" fill="#1B1A20" fill-opacity="0.6"/>
<rect x="1201" y="127" width="61" height="98" fill="white"/>
<rect y="137" width="61" height="98" fill="white"/>
</svg>
