<svg width="1314" height="231" viewBox="0 0 1314 231" fill="none" xmlns="http://www.w3.org/2000/svg">
<path d="M1223.98 44.5079L1246.29 110.623C1202.81 86.1396 1142.48 52.0695 1142.48 52.0695L1223.98 44.5079Z" fill="#1B1A20" fill-opacity="0.7"/>
<path d="M75.5095 106.068L34.2046 63.3692C79.1428 71.1041 141.719 82.0724 141.719 82.0724L75.5095 106.068Z" fill="#1B1A20" fill-opacity="0.7"/>
<path d="M1089.7 22.152L1226.67 99.4359C1114.91 87.5636 933.532 68.2474 933.532 68.2474L1089.7 22.152Z" fill="#1B1A20" fill-opacity="0.8"/>
<path d="M278.03 32.652L462.913 58.7974C323.181 73.9466 96.3843 98.4999 96.3843 98.4999L278.03 32.652Z" fill="#1B1A20" fill-opacity="0.8"/>
<path d="M547.894 22.0486L654.497 38.0061L462.608 58.8137L547.894 22.0486Z" fill="#1B1A20" fill-opacity="0.6"/>
<path d="M421.786 102.687L519.527 52.498L315.366 74.7886L421.786 102.687Z" fill="#1B1A20" fill-opacity="0.6"/>
<path d="M867.521 93.4007L951.007 70.0789L791.048 52.8531L867.521 93.4007Z" fill="#1B1A20" fill-opacity="0.7"/>
<path d="M588.876 67.044L654 37.9999L518.945 52.5727L588.876 67.044Z" fill="#1B1A20" fill-opacity="0.8"/>
<path d="M753.66 29.3446L655.144 38.138L848.015 58.7298L753.66 29.3446Z" fill="black" fill-opacity="0.6"/>
<path d="M719.914 71.5459L791.202 52.7505L654.15 38.4713L719.914 71.5459Z" fill="#1B1A20" fill-opacity="0.6"/>
<path d="M657.272 123L1130 200H186L657.272 123Z" fill="#706E70"/>
<path d="M86.9999 230.5H1227L1227.2 99.5L654.5 38L86.9999 99.5V230.5Z" fill="#1B1A20" fill-opacity="0.7"/>
<path d="M86.9999 230.5H1227L1227.2 99.5L654.5 38L86.9999 99.5V230.5Z" fill="url(#paint0_linear)"/>
<path d="M1227 8H1314V136H1227V8Z" fill="white"/>
<rect y="19" width="87" height="128" fill="white"/>
<defs>
<linearGradient id="paint0_linear" x1="657.099" y1="230.5" x2="657.099" y2="38" gradientUnits="userSpaceOnUse">
<stop stop-color="white" stop-opacity="0"/>
<stop offset="0.255208" stop-color="#706F73" stop-opacity="0.43931"/>
<stop offset="0.588542" stop-color="#36353B" stop-opacity="0.616207"/>
<stop offset="0.838542" stop-color="#1B1A20" stop-opacity="0.7"/>
</linearGradient>
</defs>
</svg>
