<svg width="1140" height="259" viewBox="0 0 1140 259" fill="none" xmlns="http://www.w3.org/2000/svg">
<path d="M458.318 21.3089L568.421 37.3428L369.513 58.1566L458.318 21.3089Z" fill="#1B1A20" fill-opacity="0.6"/>
<path fill-rule="evenodd" clip-rule="evenodd" d="M1140 94.5915L1006.03 39.6877L852.094 66.1235C852.094 66.1235 1027.82 84.5249 1140 96.2528V94.5915Z" fill="#1B1A20" fill-opacity="0.8"/>
<path fill-rule="evenodd" clip-rule="evenodd" d="M1140 94.5032V60.1609L1130.23 41.1494L1051.98 58.4711C1051.98 58.4711 1097.88 77.2814 1140 94.5032Z" fill="#1B1A20" fill-opacity="0.7"/>
<path d="M337.642 101.772L439.691 51.8292L227.599 72.9015L337.642 101.772Z" fill="#1B1A20" fill-opacity="0.6"/>
<path d="M787.897 92.1011L871.906 69.2803L710.603 52.3348L787.897 92.1011Z" fill="#1B1A20" fill-opacity="0.7"/>
<path d="M507.866 66.6766L571.586 37.0438L438.986 52.2024L507.866 66.6766Z" fill="#1B1A20" fill-opacity="0.8"/>
<path d="M673.085 28.8218L574.516 37.6152L767.49 58.207L673.085 28.8218Z" fill="black" fill-opacity="0.6"/>
<path d="M635.999 71.0994L706.749 51.8339L571.172 37.0928L635.999 71.0994Z" fill="#1B1A20" fill-opacity="0.6"/>
<path fill-rule="evenodd" clip-rule="evenodd" d="M0.00335693 63.9687C32.868 69.4848 62.3573 74.5073 62.3573 74.5073L0.00335693 96.4432V63.9687Z" fill="#1B1A20" fill-opacity="0.7"/>
<path d="M0 258.953L1140 259.057V96.0631L570.501 37.0569L0 96.396V258.953Z" fill="#111113" fill-opacity="0.78"/>
<path fill-rule="evenodd" clip-rule="evenodd" d="M373.292 58.1057L184.206 31.5056L0 96.4736V96.8274C19.5693 94.7942 236.696 72.2358 373.292 58.1057Z" fill="#1B1A20" fill-opacity="0.8"/>
</svg>
