<svg width="1140" height="279" viewBox="0 0 1140 279" fill="none" xmlns="http://www.w3.org/2000/svg">
<path d="M-3.05176e-05 0H1139.98V180.108L570.491 257.5L-3.05176e-05 180.108V0Z" fill="#1B1A20" fill-opacity="0.8"/>
<path d="M351.578 177.414L453.096 242.291L241.329 212.948L351.578 177.414Z" fill="#1B1A20" fill-opacity="0.6"/>
<path d="M780.049 187.347L864.87 217.919L702.083 239.427L780.049 187.347Z" fill="#1B1A20" fill-opacity="0.6"/>
<path d="M508.226 221.101L570.148 257.423L437.94 239.374L508.226 221.101Z" fill="#1B1A20" fill-opacity="0.8"/>
<path d="M635.574 215.232L706.178 238.001L569.991 257.5L635.574 215.232Z" fill="#1B1A20" fill-opacity="0.6"/>
<path fill-rule="evenodd" clip-rule="evenodd" d="M1139.98 178.109C1099.41 209.25 1052.09 245.652 1052.09 245.652L1133.45 251.686L1139.99 225H1139.98V178.109Z" fill="#1B1A20" fill-opacity="0.7"/>
<path fill-rule="evenodd" clip-rule="evenodd" d="M0 222.251C33.347 214.446 63.3526 207.605 63.3526 207.605L0 179.835V222.251Z" fill="#1B1A20" fill-opacity="0.7"/>
<path fill-rule="evenodd" clip-rule="evenodd" d="M570.048 257.534L661.65 269.146L756.047 232.179L570.048 257.534Z" fill="black" fill-opacity="0.7"/>
<path fill-rule="evenodd" clip-rule="evenodd" d="M385.998 232.595L197.408 266.243L1.04211 180.272C1.04211 180.272 242.988 213.084 385.998 232.595Z" fill="#1B1A20" fill-opacity="0.7"/>
<path opacity="0.8" fill-rule="evenodd" clip-rule="evenodd" d="M1136.7 180.63L1008.71 278.953L861.939 217.827C861.939 217.827 1031.95 194.787 1136.7 180.63Z" fill="#1B1A20" fill-opacity="0.7"/>
<path fill-rule="evenodd" clip-rule="evenodd" d="M570.012 257.455L460.649 276.075L372.107 229.979L570.012 257.455Z" fill="#1B1A20" fill-opacity="0.7"/>
</svg>
